<?xml version="1.0" encoding="utf-8"?>
<!-- Generator: Adobe Illustrator 26.2.1, SVG Export Plug-In . SVG Version: 6.00 Build 0)  -->
<svg version="1.1" id="Layer_1" xmlns="http://www.w3.org/2000/svg" xmlns:xlink="http://www.w3.org/1999/xlink" x="0px" y="0px"
	 width="90px" height="90px" viewBox="0 0 90 90" style="enable-background:new 0 0 90 90;" xml:space="preserve">
<style type="text/css">
	.st0{fill:#B20E10;}
	.st1{fill:#FFFFFF;}
</style>
<g>
	<path class="st0" d="M90.28,44.75c0,24.85-20.15,45-45,45c-24.85,0-45-20.15-45-45c0-24.85,20.15-45,45-45
		C70.13-0.25,90.28,19.9,90.28,44.75"/>
	<path class="st1" d="M19.69,52.34c-3.37,0-5.11-2.6-5.11-7.78c0-5.18,1.74-7.78,5.15-7.78c2.71,0,3.98,1.47,4.12,3.78h-2.3
		c-0.09-1.02-0.66-1.7-1.83-1.7c-1.95,0-2.78,2.1-2.78,5.7c0,3.6,0.84,5.72,2.78,5.72c1.2,0,1.81-0.73,1.94-1.9h2.35
		C23.8,50.91,22.54,52.34,19.69,52.34"/>
	<path class="st1" d="M33.88,52.34c-3.16,0-5.31-3.1-5.31-7.78s2.15-7.78,5.31-7.78c3.17,0,5.31,3.1,5.31,7.78
		S37.05,52.34,33.88,52.34 M33.88,38.86c-1.83,0-2.96,2.15-2.96,5.7c0,3.55,1.13,5.7,2.96,5.7c1.83,0,2.96-2.15,2.96-5.7
		C36.85,41.01,35.72,38.86,33.88,38.86"/>
	<path class="st1" d="M52.63,52.11l-3.46-6.28h-1.74v6.28h-2.29v-15.1h4.63c2.53,0,4.66,1.49,4.66,4.41c0,2.12-1.08,3.53-2.96,4.09
		l3.84,6.6H52.63z M49.62,39.04h-2.19v4.72h2.19c1.6,0,2.46-0.93,2.46-2.35C52.09,39.99,51.23,39.04,49.62,39.04"/>
	<path class="st1" d="M65.26,45.83h-2.02v6.28h-2.28v-15.1h4.19c2.53,0,5.1,1.49,5.1,4.41C70.24,44.28,68.36,45.83,65.26,45.83
		 M65.43,39.04h-2.19v4.72h2.19c1.61,0,2.46-0.93,2.46-2.35C67.89,39.99,67.03,39.04,65.43,39.04"/>
	<path class="st1" d="M72.15,51.92c-0.5-0.51-0.75-1.12-0.75-1.83c0-0.71,0.25-1.32,0.76-1.82c0.51-0.5,1.12-0.75,1.83-0.75
		s1.32,0.25,1.82,0.75c0.5,0.5,0.75,1.11,0.75,1.82c0,0.71-0.25,1.32-0.74,1.83c-0.49,0.51-1.1,0.76-1.83,0.76
		C73.27,52.68,72.65,52.43,72.15,51.92"/>
</g>
</svg>
