<?xml version="1.0" standalone="no"?>
<!DOCTYPE svg PUBLIC "-//W3C//DTD SVG 20010904//EN"
 "http://www.w3.org/TR/2001/REC-SVG-20010904/DTD/svg10.dtd">
<svg version="1.0" xmlns="http://www.w3.org/2000/svg"
 width="512.000000pt" height="512.000000pt" viewBox="0 0 512.000000 512.000000"
 preserveAspectRatio="xMidYMid meet">
<metadata>
Created by potrace 1.14, written by Peter Selinger 2001-2017
</metadata>
<g transform="translate(0.000000,512.000000) scale(0.100000,-0.100000)"
fill="#000000" stroke="none">
<path d="M2239 5116 c-4 -4 -52 -12 -134 -22 -21 -3 -42 -7 -46 -10 -4 -2 -24
-6 -45 -10 -58 -9 -317 -91 -414 -131 -577 -237 -1065 -699 -1333 -1263 -67
-140 -74 -158 -127 -318 -59 -180 -99 -379 -116 -572 -13 -146 -7 -446 10
-536 2 -12 7 -45 11 -74 4 -29 8 -60 10 -69 2 -9 11 -50 20 -91 63 -294 196
-604 372 -868 46 -70 91 -133 98 -142 8 -8 44 -51 81 -95 349 -418 864 -727
1405 -843 185 -40 335 -56 539 -56 123 -1 337 11 350 19 3 1 28 6 55 9 28 4
82 14 120 22 39 8 81 17 95 20 50 10 227 67 315 101 336 132 625 321 880 577
160 161 257 283 372 468 134 216 276 556 309 741 2 17 7 34 9 37 3 4 7 25 11
45 3 21 8 47 10 59 16 83 19 150 19 461 0 309 -4 412 -20 457 -2 7 -7 31 -10
53 -3 22 -19 90 -35 152 -144 540 -465 1022 -912 1366 -216 167 -471 304 -733
395 -93 32 -297 85 -375 97 -25 4 -54 10 -65 13 -23 6 -719 14 -726 8z m-1034
-2097 c80 -22 140 -90 147 -165 l3 -39 -61 -3 -62 -3 -18 38 c-54 111 -188 66
-228 -76 -24 -84 -26 -246 -6 -342 19 -87 37 -121 83 -150 61 -38 147 -5 162
62 6 29 8 29 76 29 62 0 70 -2 66 -17 -3 -10 -10 -39 -17 -65 -26 -99 -112
-149 -245 -143 -73 3 -125 23 -173 68 -31 28 -78 130 -87 187 -4 25 -9 54 -11
65 -6 26 -5 214 0 241 2 12 7 37 10 57 11 72 48 150 92 193 65 65 171 90 269
63z m809 -5 c134 -46 220 -225 215 -446 -4 -158 -45 -274 -124 -351 -56 -55
-112 -76 -191 -72 -130 5 -227 101 -269 263 -28 109 -25 271 7 377 56 188 205
282 362 229z m938 -22 c121 -53 174 -185 129 -320 -21 -62 -41 -86 -102 -121
l-46 -26 103 -175 c57 -96 103 -180 103 -185 1 -7 -27 -10 -70 -10 -81 1 -79
-1 -141 115 -126 235 -128 238 -156 241 -15 3 -37 3 -49 1 -22 -3 -23 -6 -25
-180 l-3 -176 -62 -1 -63 -2 -1 31 c-1 40 -1 796 0 817 1 13 23 15 169 14 146
-2 173 -4 214 -23z m838 13 c53 -12 110 -43 146 -82 89 -94 78 -269 -21 -351
-57 -46 -109 -58 -282 -61 l-33 -1 -2 -177 -3 -177 -62 -1 c-57 -2 -63 0 -64
19 -1 26 -1 770 0 812 l1 30 143 -1 c78 -1 158 -5 177 -10z m497 -611 c48 -36
66 -70 67 -123 1 -131 -157 -198 -249 -105 -68 67 -54 180 28 228 49 30 114
29 154 0z"/>
<path d="M1885 2900 c-85 -35 -133 -179 -121 -363 7 -122 34 -198 85 -243 78
-69 188 -15 222 110 19 72 20 79 21 181 1 115 -18 198 -57 257 -37 55 -99 80
-150 58z"/>
<path d="M2700 2766 l0 -134 75 -1 c125 -2 176 32 182 122 7 102 -35 138 -166
143 l-91 4 0 -134z"/>
<path d="M3600 2764 l0 -134 91 3 c97 4 131 19 156 68 30 57 4 151 -49 180
-13 7 -62 14 -110 15 l-88 2 0 -134z"/>
</g>
</svg>
